<?xml version="1.0" encoding="utf-8"?>
<!-- Generator: Adobe Illustrator 14.0.0, SVG Export Plug-In . SVG Version: 6.00 Build 43363)  -->
<!DOCTYPE svg PUBLIC "-//W3C//DTD SVG 1.0//EN" "http://www.w3.org/TR/2001/REC-SVG-20010904/DTD/svg10.dtd">
<svg version="1.0" id="Layer_1" xmlns="http://www.w3.org/2000/svg" xmlns:xlink="http://www.w3.org/1999/xlink" x="0px" y="0px"
	 width="91.613px" height="100px" viewBox="0 0 91.613 100" enable-background="new 0 0 91.613 100" xml:space="preserve">
<polygon points="52.036,33.46 52.036,14.655 46.78,0.709 45.807,0 45.806,0 45.806,0 44.832,0.709 39.577,14.655 39.577,33.46 
	0,62.505 0,72.969 24.986,58.337 39.577,58.337 43.324,83.325 29.157,89.556 29.157,95.83 44.564,91.662 45.806,100 45.806,99.999 
	45.807,100 47.047,91.662 62.456,95.83 62.456,89.556 48.289,83.325 52.036,58.337 66.625,58.337 91.613,72.969 91.613,62.505 "/>
</svg>
