<?xml version="1.0" encoding="utf-8"?>
<!-- Generator: Adobe Illustrator 15.1.0, SVG Export Plug-In . SVG Version: 6.00 Build 0)  -->
<!DOCTYPE svg PUBLIC "-//W3C//DTD SVG 1.1//EN" "http://www.w3.org/Graphics/SVG/1.1/DTD/svg11.dtd">
<svg version="1.1" id="Layer_1" xmlns="http://www.w3.org/2000/svg" xmlns:xlink="http://www.w3.org/1999/xlink" x="0px" y="0px"
	 width="62.432px" height="100px" viewBox="0 0 62.432 100" enable-background="new 0 0 62.432 100" xml:space="preserve">
<path d="M57.724,31l-4.017,6.427V92c0,2.879-1.121,4-4,4H31.216H12.725c-2.879,0-4-1.121-4-4V37.427L4.708,31H0l4.725,7.573V92
	c0,5.084,2.916,8,8,8h18.491h18.491c5.084,0,8-2.916,8-8V38.573L62.432,31H57.724z"/>
<circle cx="39.216" cy="28.5" r="6.5"/>
<circle cx="41.216" cy="16.5" r="2.5"/>
<circle cx="27.216" cy="27.5" r="2.5"/>
<circle cx="24.216" cy="2.5" r="2.5"/>
<circle cx="22.716" cy="18" r="4"/>
<circle cx="31.716" cy="13" r="3"/>
<circle cx="17.216" cy="29.5" r="4.5"/>
<rect x="12.716" y="40" width="37" height="52"/>
</svg>
