<svg xmlns="http://www.w3.org/2000/svg" xmlns:xlink="http://www.w3.org/1999/xlink" version="1.1" x="0px" y="0px" width="73.453px" height="100px" viewBox="0 0 73.453 100" enable-background="new 0 0 73.453 100" xml:space="preserve">
<g id="Layer_46">
	<path fill="#000000" d="M42.806,5.084c1.584,3.068,4.054,9.413,1.258,12.998c-2.522,0.147-4.805,0.053-5.87-1.258   C37.653,10.833,40.616,8.345,42.806,5.084"/>
	<path fill="#000000" d="M21.84,8.438c2.848,1.282,9.787,2.776,10.063,6.709c0.177,2.5-1.289,4.193-3.773,4.193   C23.411,19.341,23.279,12.701,21.84,8.438z"/>
	<path fill="#000000" d="M59.998,12.632c0.443,3.086-1.246,10.719-4.612,11.321c-2.331,0.417-4.367-0.861-4.613-3.355   C50.271,15.493,56.899,15.155,59.998,12.632z"/>
	<path fill="#000000" d="M25.196,21.438c2.5,2.615,4.809,7.374,3.773,12.16c-1.775,1.674-5.314,1.471-6.709-0.42   C21.321,28.633,23.967,25.1,25.196,21.438z"/>
	<path fill="#000000" d="M32.743,21.856c3.76-0.519,11.733,0.299,12.16,4.193c0.206,1.884-1.289,3.429-3.355,4.612   C36.883,29.455,35.144,25.325,32.743,21.856z"/>
	<path fill="#000000" d="M51.192,26.05c-0.831,8.544-6.555,15.798-7.547,25.578c7.079-0.233,11.931-6.205,17.191-9.646   c1.601,0.355,2.019,1.896,2.516,3.354c-3.052,2.89-7.382,3.894-10.482,6.711c-3.927,3.564-7.93,9.279-7.128,17.608   c0.309,3.232,2.185,8.023,2.516,12.581c0.192,2.646-0.466,5.821,0,7.547c0.601,2.228,2.538,2.627,3.772,4.612   c-5.771,0.713-14.347,0.672-20.126,0c0.923-2.431,4.441-2.268,5.87-4.192c1.827-16.838-7.143-24.929-22.643-23.063   c-0.471-2.13,2.454-2.693,4.193-3.354c3.553-1.349,9.269-2.669,14.256-0.838c-2.551-8.849-7.512-15.85-12.998-22.224   c-1.527-1.773-4.611-3.483-4.193-6.289c2.543-2.322,3.762,1.168,5.032,2.516c1.391,1.476,3.253,2.815,4.612,4.193   c3.027,3.066,5.637,6.649,9.225,8.386c8.642-3.937,9.415-15.743,13.418-24.319C50.125,24.879,50.447,25.677,51.192,26.05z"/>
	<path fill="#000000" d="M15.551,27.727c0.217,11.525-11.819,1.95-12.16-1.677C7.372,25.279,13.538,25.209,15.551,27.727z"/>
	<path fill="#000000" d="M57.9,28.984c3.636,6.052-1.969,17.658-7.128,10.063C50.958,33.504,55.157,31.971,57.9,28.984z"/>
	<path fill="#000000" d="M35.258,31.5c2.236,2.99,4.623,8.188,2.936,12.579C28.634,47.844,31.977,35.091,35.258,31.5z"/>
	<path fill="#000000" d="M75.511,33.598c-1.605,2.332-4.07,9.66-7.966,9.644c-2.458-0.011-4.229-2.61-3.774-5.032   C64.507,34.277,70.907,34.588,75.511,33.598z"/>
	<path fill="#000000" d="M15.131,38.629c1.413,1.881,0.701,4.705-0.419,6.289c-5.024,1.174-8.755-1.99-12.159-3.773   C5.647,39.395,10.924,36.627,15.131,38.629z"/>
	<path fill="#000000" d="M75.932,55.402c-4.291,1.211-9.774-0.008-12.161-2.099C63.285,42.092,73.843,50.771,75.932,55.402z"/>
	<path fill="#000000" d="M8.842,49.949c1.568,1.668,2.188,4.937,0.42,6.708c-4.217,1.132-8.792-0.223-11.741-1.676   C0.48,52.489,3.186,49.744,8.842,49.949z"/>
	<path fill="#000000" d="M26.034,54.144c-1.188,10.654-11.658,0.532-12.16-2.936C18.08,50.403,24.132,51.26,26.034,54.144z"/>
	<path fill="#000000" d="M64.61,64.206c-3.506-0.101-10.728-2.122-10.901-5.87c-0.137-2.924,3.364-5.139,6.289-3.354   C62.712,56.64,62.933,61.921,64.61,64.206z"/>
	<path fill="#000000" d="M11.778,62.528c6.385,5.93-3.439,9.253-10.482,7.128C4.042,66.536,5.854,62.477,11.778,62.528z"/>
	<path fill="#000000" d="M61.674,70.915c-1.25,1.032-2.459,2.736-4.191,3.773c-3.091,1.85-9.707,3.201-8.807-2.516   C49.459,67.205,57.819,69.612,61.674,70.915z"/>
	<path fill="#000000" d="M18.067,82.237c-1.582-3.356-1.386-11.18,1.678-12.581C29.858,69.791,21.935,80.012,18.067,82.237z"/>
</g>

</svg>
