<svg xmlns="http://www.w3.org/2000/svg" xmlns:xlink="http://www.w3.org/1999/xlink" version="1.1" id="Layer_1" x="0px" y="0px" width="100px" height="100px" viewBox="0 0 100 100" enable-background="new 0 0 100 100" xml:space="preserve">
<g>
	<path d="M70.596,44.559c0.012-1.393-2.815-1.438-3.338-2.729c-0.521-1.292,1.516-3.2,0.54-4.193   c-0.978-0.994-2.887,1.046-4.169,0.501c-1.283-0.544-1.314-3.325-2.706-3.417c-1.231-0.082-1.693,2.25-2.833,2.724   c-1.166,0.485-3.215-0.839-4.089,0.074c-0.871,0.91,0.546,2.703,0.126,3.715c-0.431,1.035-3.13,1.824-3.043,3.159   c0.093,1.39,2.875,1.412,3.396,2.703c0.522,1.292-1.574,3.227-0.598,4.22s2.916-0.848,4.199-0.304   c1.281,0.544,1.283,3.208,2.675,3.22c1.393,0.013,1.899-2.486,3.19-3.008c1.291-0.522,2.739,1.186,3.732,0.21   c0.994-0.977-0.74-3.097-0.197-4.38C68.026,45.77,70.584,45.951,70.596,44.559z M60.839,49.016c-2.509,0-4.542-2.033-4.542-4.541   c0-2.509,2.033-4.542,4.542-4.542c2.508,0,4.541,2.033,4.541,4.542C65.38,46.982,63.347,49.016,60.839,49.016z"/>
	<circle fill="none" cx="60.839" cy="44.474" r="4.542"/>
</g>
<g>
	<path d="M50.904,51.767c-0.058-1.392,2.038-2.181,1.452-3.445c-0.587-1.263-3.167-0.341-4.192-1.284   c-1.025-0.943,0.004-3.292-1.304-3.771c-1.308-0.479-2.301,2.17-3.692,2.229c-1.391,0.058-2.505-2.503-3.768-1.917   c-1.264,0.586,0.015,3.07-0.928,4.096c-0.943,1.025-3.573,0.123-4.127,1.4c-0.492,1.133,1.55,2.351,1.614,3.584   c0.065,1.261-1.869,2.747-1.303,3.876c0.563,1.126,2.729,0.394,3.541,1.129c0.832,0.752,0.667,3.561,1.955,3.926   c1.34,0.381,2.294-2.232,3.686-2.291c1.392-0.059,2.511,2.566,3.774,1.979c1.264-0.587,0.181-3.031,1.123-4.057   c0.943-1.024,3.453-0.132,3.932-1.438C53.146,54.475,50.962,53.158,50.904,51.767z M43.501,56.959   c-2.508,0-4.541-2.033-4.541-4.541s2.033-4.541,4.541-4.541c2.508,0,4.542,2.033,4.542,4.541S46.01,56.959,43.501,56.959z"/>
	<circle fill="none" cx="43.501" cy="52.418" r="4.541"/>
</g>
<g>
	<path d="M67.557,64.856c0.012-1.394-2.815-1.438-3.338-2.729c-0.521-1.291,1.516-3.2,0.54-4.193   c-0.978-0.994-2.887,1.046-4.169,0.502c-1.283-0.545-1.314-3.325-2.706-3.418c-1.231-0.082-1.693,2.25-2.833,2.725   c-1.166,0.484-3.215-0.84-4.089,0.074c-0.871,0.909,0.546,2.703,0.126,3.715c-0.431,1.035-3.13,1.824-3.043,3.158   c0.093,1.391,2.875,1.412,3.396,2.703c0.522,1.293-1.574,3.227-0.598,4.22c0.977,0.993,2.917-0.848,4.2-0.304   c1.281,0.543,1.283,3.207,2.675,3.221c1.393,0.012,1.899-2.487,3.19-3.01c1.291-0.521,2.739,1.188,3.732,0.211   c0.994-0.977-0.74-3.098-0.197-4.381C64.987,66.068,67.545,66.249,67.557,64.856z M57.8,69.313c-2.509,0-4.542-2.033-4.542-4.541   c0-2.509,2.033-4.542,4.542-4.542c2.508,0,4.541,2.033,4.541,4.542C62.341,67.28,60.308,69.313,57.8,69.313z"/>
	<circle fill="none" cx="57.8" cy="64.772" r="4.542"/>
</g>
</svg>