<?xml version="1.0" encoding="utf-8"?>
<!-- Generator: Adobe Illustrator 15.1.0, SVG Export Plug-In . SVG Version: 6.00 Build 0)  -->
<!DOCTYPE svg PUBLIC "-//W3C//DTD SVG 1.1//EN" "http://www.w3.org/Graphics/SVG/1.1/DTD/svg11.dtd">
<svg version="1.1" id="Layer_1" xmlns="http://www.w3.org/2000/svg" xmlns:xlink="http://www.w3.org/1999/xlink" x="0px" y="0px"
	 width="75px" height="100px" viewBox="0 0 75 100" enable-background="new 0 0 75 100" xml:space="preserve">
<path d="M70.833,58.145V29.167c0-4.796-3.517-8.598-5.617-10.871c-0.232-0.25-0.451-0.485-0.647-0.705l-7.049-7.054l-6.047-5.064
	l-2.945,2.946l5.065,6.049l1.269,1.268v14.126c0,3.064,2.491,5.555,5.556,5.555h4.86v22.917l4.156,30.662
	c-0.059,3.014-2.518,5.449-5.545,5.449c-3.062,0-5.553-2.489-5.556-5.55h0.002V50.005L58.333,50c0-4.595-3.737-8.333-8.333-8.333
	h-8.333V8.102C41.667,3.634,37.929,0,33.333,0h-25C3.738,0,0,3.634,0,8.102V100h41.667V47.222H50c1.531,0,2.777,1.247,2.777,2.778
	l0.002,0.005v38.883h-0.002c0,6.127,4.985,11.111,11.111,11.111C70.016,100,75,95.016,75,88.889L70.833,58.145z M65.277,31.25h-4.86
	c-0.767,0-1.39-0.623-1.39-1.389v-5.359v-4.601l1.456,1.456c0.2,0.222,0.42,0.46,0.653,0.712c1.747,1.89,4.141,4.478,4.141,7.098
	V31.25z M5.556,8.102c0-1.404,1.247-2.546,2.778-2.546h25c1.531,0,2.778,1.142,2.778,2.546v21.297c0,1.404-1.247,2.546-2.778,2.546
	h-25c-1.531,0-2.778-1.142-2.778-2.546V8.102z M5.557,53.551c8.438,0,15.277,6.84,15.277,15.278
	C12.397,68.829,5.557,61.988,5.557,53.551z M16.74,54.681c0.608-2.733,1.967-5.332,4.095-7.458c2.127,2.127,3.482,4.728,4.092,7.459
	c-1.611,1.278-2.992,2.828-4.089,4.574C19.737,57.506,18.354,55.96,16.74,54.681z M23.599,68.565
	c-0.031-2.232-0.476-4.364-1.252-6.331c2.463-5.133,7.693-8.684,13.765-8.684C36.112,61.043,30.716,67.264,23.599,68.565z"/>
</svg>
