<svg xmlns="http://www.w3.org/2000/svg" xmlns:xlink="http://www.w3.org/1999/xlink" version="1.1" id="Layer_1" x="0px" y="0px" width="100px" height="100px" viewBox="0 0 100 100" enable-background="new 0 0 100 100" xml:space="preserve">
<g>
	<path d="M49.569,22.967c-9.975-5.691-20.677-9.125-31.045-9.962v58.351c10.367,0.814,21.05,4.154,31.045,9.699V22.967z"/>
	<path d="M82.444,13.005c-10.368,0.838-21.071,4.271-31.045,9.962v58.087c9.993-5.545,20.679-8.885,31.045-9.699V13.005z"/>
	<path d="M49.229,84.073c0.814,0.278,1.671,0.29,2.485,0.012c11.657-5.043,23.865-7.313,35.798-6.79V19.524   c-1.074-0.048-2.155-0.059-3.24-0.055v53.594l-0.852,0.056c-10.672,0.697-21.732,4.177-32.021,10.048   c-0.594,0.203-1.237,0.203-1.83,0c-10.29-5.871-21.349-9.351-32.021-10.048l-0.854-0.056V19.469   c-1.084-0.004-2.166,0.006-3.239,0.055v57.771C25.387,76.771,37.569,79.03,49.229,84.073z"/>
	<path d="M92.579,26.009c-1.07-0.149-2.157-0.228-3.237-0.335v53.55l-0.968-0.056c-12.195-0.699-25.06,1.777-36.975,7.065   l-0.916,0.381l-0.915-0.381c-11.917-5.288-24.781-7.765-36.976-7.065l-0.967,0.056v-53.55c-1.081,0.108-2.168,0.187-3.238,0.335   v58.707c0.594,0.307,1.044,0.748,1.044,0.748c12.951-1.75,26.393-1.536,39.18,2.651c0.588-0.058,1.212-0.095,1.873-0.095   c0.661,0,1.285,0.037,1.872,0.095c12.785-4.188,26.229-4.401,39.179-2.651c0,0,0.474-0.462,1.044-0.748V26.009z"/>
</g>
</svg>