<svg xmlns="http://www.w3.org/2000/svg" xmlns:xlink="http://www.w3.org/1999/xlink" version="1.1" id="Layer_1" x="0px" y="0px" width="100px" height="100px" viewBox="0 0 100 100" enable-background="new 0 0 100 100" xml:space="preserve">
<path fill="#000000" d="M62.684,43.701c-0.07-0.371-0.437-0.675-0.812-0.675H37.864c-0.376,0-0.743,0.305-0.81,0.675l-7.989,43.307  c-0.068,0.371,0.186,0.676,0.561,0.676h40.519c0.375,0,0.629-0.305,0.562-0.676L62.684,43.701z M46.996,53.016  c0.312,0.213,0.312,0.562,0,0.771l-9.225,6.255c-0.315,0.211-0.513,0.081-0.445-0.29l2.062-11.172  c0.068-0.372,0.38-0.501,0.693-0.289L46.996,53.016z M42.107,46.593c-0.314-0.213-0.258-0.387,0.118-0.387h15.267  c0.374,0,0.432,0.174,0.117,0.385l-7.212,4.892c-0.314,0.211-0.823,0.211-1.138-0.002L42.107,46.593z M49.253,55.33  c0.315-0.211,0.824-0.211,1.138,0.002l10.312,7.046c0.312,0.212,0.312,0.562,0.003,0.776l-10.332,7.141  c-0.312,0.217-0.821,0.217-1.13,0.001L38.85,63.154c-0.311-0.213-0.311-0.563,0.003-0.773L49.253,55.33z M46.446,72.23  c0.309,0.215,0.309,0.563,0,0.779l-12.692,8.774c-0.311,0.217-0.509,0.088-0.44-0.284l2.873-15.562  c0.069-0.371,0.379-0.498,0.69-0.285L46.446,72.23z M49.251,74.939c0.309-0.215,0.821-0.215,1.13,0l13.352,9.174  c0.312,0.213,0.256,0.389-0.123,0.389H36.104c-0.375,0-0.431-0.176-0.12-0.393L49.251,74.939z M53.18,73.003  c-0.312-0.215-0.312-0.563,0-0.78l9.672-6.688c0.312-0.217,0.621-0.088,0.689,0.283l2.914,15.719  c0.068,0.371-0.131,0.501-0.439,0.286L53.18,73.003z M62.449,59.898c0.068,0.371-0.131,0.5-0.445,0.287l-9.35-6.39  c-0.314-0.215-0.314-0.562,0-0.771l7.002-4.749c0.314-0.211,0.623-0.081,0.691,0.291L62.449,59.898z"/>
<g>
	<path fill="#000000" d="M59.163,36.981c0.05,0.284-0.146,0.516-0.429,0.516h-17.7c-0.286,0-0.481-0.232-0.431-0.516l2.023-11.195   c0.049-0.283,0.33-0.515,0.616-0.515h13.285c0.283,0,0.562,0.232,0.615,0.515L59.163,36.981z"/>
</g>
<g>
	<path fill="#000000" d="M71.826,42.595l-3.055-2.79l1.396-1.526c1.702-1.862,2.642-4.275,2.642-6.794   c0-2.52-0.938-4.933-2.642-6.794l-1.396-1.527l3.055-2.79l1.396,1.526c2.399,2.626,3.721,6.029,3.721,9.584   c0,3.554-1.318,6.958-3.721,9.584L71.826,42.595z"/>
</g>
<g>
	<path fill="#000000" d="M82.256,50.453l-3.85-3.519l1.762-1.924c3.382-3.706,5.251-8.509,5.251-13.525s-1.869-9.82-5.251-13.525   l-1.762-1.924l3.85-3.52l1.76,1.925c4.271,4.667,6.615,10.722,6.615,17.044c0,6.321-2.348,12.375-6.615,17.042L82.256,50.453z"/>
</g>
<g>
	<path fill="#000000" d="M27.894,42.397L26.5,40.871c-2.402-2.627-3.721-6.03-3.721-9.585c0-3.553,1.319-6.957,3.721-9.583   l1.394-1.527l3.051,2.79l-1.393,1.526c-1.702,1.862-2.639,4.275-2.639,6.794c0,2.521,0.937,4.933,2.639,6.795l1.393,1.526   L27.894,42.397z"/>
</g>
<g>
	<path fill="#000000" d="M17.464,50.255l-1.759-1.925c-4.267-4.667-6.617-10.721-6.617-17.044c0-6.321,2.35-12.375,6.617-17.042   l1.759-1.926l3.85,3.52l-1.761,1.923c-3.384,3.706-5.252,8.51-5.252,13.525c0,5.016,1.868,9.821,5.252,13.526l1.761,1.924   L17.464,50.255z"/>
</g>
</svg>