<svg xmlns="http://www.w3.org/2000/svg" xmlns:xlink="http://www.w3.org/1999/xlink" version="1.0" id="Layer_1" x="0px" y="0px" width="51.855px" height="100px" viewBox="0 0 51.855 100" enable-background="new 0 0 51.855 100" xml:space="preserve">
<circle cx="30.833" cy="4.501" r="2.5"/>
<circle cx="30.834" cy="13.501" r="2.5"/>
<circle cx="27.834" cy="23.001" r="3"/>
<circle cx="18.24" cy="19.502" r="3"/>
<circle cx="23.334" cy="9.001" r="4.5"/>
<path d="M37.303,97.125l-1.376-42.531V32.476l1.229-2.475h-3.748l-0.542,1.687l0.312,23.479l1.208,39.208  c0.167,1.833-2.448,1.626-4.291,1.626l-4.166,0.001h-0.001c0,0-4.793,0.064-5.667,0.028c-1.75-0.072-2.333,0.22-2.125-3.572  c0.169-3.085,0.103-11.833,0.697-37.333l-0.281-23.5l-0.5-1.624h-3.351l1.229,2.475v22.118c0,0-0.427,40.033-0.419,42.489  c0.01,3.331,2.833,2.917,2.833,2.917s11.698,0,15.917,0C35.053,100,37.303,100.026,37.303,97.125z"/>
<g>
	<polygon points="20.274,60.586 31.927,60.586 31.744,50.707 20.339,50.707  "/>
	<polygon points="32.242,77.667 31.94,61.279 31.94,62 20.265,62 20.162,77.667  "/>
	<polygon points="31.718,49.293 31.49,37 20.428,37 20.348,49.293  "/>
	<polygon points="20.153,79.081 20.053,94.426 32.553,94.426 32.269,79.081  "/>
</g>
</svg>