<svg xmlns="http://www.w3.org/2000/svg" xmlns:xlink="http://www.w3.org/1999/xlink" version="1.1" id="Calque_1" x="0px" y="0px" width="100px" height="100px" viewBox="0 0 100 100" enable-background="new 0 0 100 100" xml:space="preserve">
<path d="M51.227,33.507c5.355-0.875,10.04-1.294,13.128-1.493l-29.499-29.5c-2.021-2.019-5.292-2.019-7.315,0  c-2.014,2.021-2.014,5.292,0,7.313L51.227,33.507z"/>
<path d="M33.381,37.991c3.752-1.358,7.628-2.421,11.379-3.245l-21.07-21.068c-2.019-2.021-5.288-2.021-7.311,0  c-2.019,2.019-2.019,5.292,0,7.311L33.381,37.991z"/>
<path d="M74.174,46.865c0.207,12.649-2.255,35.305-13.378,46.429c-2.131,2.129-4.835,3.333-7.613,3.616  c12.355,3.496,26.188,0.388,35.916-9.336c14.31-14.312,14.31-37.513,0-51.825L73.824,20.477c-1.051-1.051-2.756-1.051-3.807,0  l-0.005,0.004c-3.07,3.065-1.719,9.084,1.656,12.461h0.004l10.116,10.116c1.051,1.051,1.051,2.758,0,3.81"/>
<path d="M13.746,62.815c-2.959-6.456-2.564-8.872,0.841-13.777l-5.759-5.763c-2.021-2.019-5.294-2.019-7.313,0s-2.019,5.294,0,7.313  l11.33,11.325"/>
<path d="M18.164,45.014c2.668-2.175,5.758-4.008,9.064-5.559L11.812,24.037c-2.019-2.019-5.292-2.019-7.311,0  c-2.023,2.019-2.023,5.294,0,7.313L18.164,45.014z"/>
<path d="M58.003,77.193"/>
<path d="M66.355,38.941c0,0-30.914-3.253-46.425,12.257c-4.916,4.917-4.916,12.885,0,17.799l1.599,1.599l35.452-25.877  L31.906,69.796L10.318,91.381c-1.378,1.379-1.369,3.618,0.02,5.003c1.385,1.39,3.624,1.398,5.003,0.02l15.992-15.99l6.392,6.381  c4.914,4.916,12.883,4.916,17.799,0C71.037,71.283,66.355,38.941,66.355,38.941z"/>
</svg>