<svg xmlns="http://www.w3.org/2000/svg" xmlns:xlink="http://www.w3.org/1999/xlink" version="1.0" x="0px" y="0px" width="100px" height="71.937px" viewBox="0 0 100 71.937" overflow="visible" enable-background="new 0 0 100 71.937" xml:space="preserve">
    <path d="M99.586,61.624v10.313h-3.72v-6.642h-9.195v6.642h-3.717v-6.642h-9.346v6.642H69.9v-6.642h-9.345v6.642h-3.713v-6.642 h-9.352v6.642h-3.707v-6.642H34.44v6.642h-3.712v-6.642H21.37v6.642h-3.721v-6.642H6.604v-9.343H0v-3.716h6.604v-9.349H0 v-3.707h6.604v-9.345H0V26.12h6.604v-9.349H0v-3.709h6.604V3.716H0V0h10.319v61.588h89.267V61.624z M91.822,16.684 c-0.759-0.009-1.5-0.125-2.216-0.337L75.74,28.609c0.367,2.554-0.536,5.233-2.635,7.04c-3.296,2.835-8.249,2.467-11.096-0.821 c-0.948-1.114-1.527-2.429-1.773-3.78l-13.696-5.868c-0.247,0.148-0.485,0.287-0.741,0.418 c-0.917,0.443-1.874,0.688-2.832,0.763l-8.459,15.798c1.295,2.087,1.604,4.744,0.583,7.183 c-1.676,4.003-6.275,5.885-10.287,4.212c-3.997-1.676-5.883-6.278-4.198-10.278c1.211-2.899,3.954-4.672,6.894-4.808 l8.34-15.557c-0.2-0.293-0.389-0.596-0.54-0.922c-1.9-3.895-0.296-8.596,3.603-10.508c3.893-1.905,8.593-0.29,10.505,3.604 c0.482,0.989,0.735,2.021,0.788,3.058l12.81,5.486c2.269-1.848,5.269-2.24,7.831-1.235l13.386-11.85 c-0.11-0.572-0.187-1.159-0.177-1.769c0.028-4.34,3.569-7.827,7.905-7.798c4.335,0.032,7.833,3.58,7.795,7.914 C99.71,13.23,96.174,16.718,91.822,16.684z"/>
</svg>