<svg xmlns="http://www.w3.org/2000/svg" xmlns:xlink="http://www.w3.org/1999/xlink" version="1.0" x="0px" y="0px" width="100px" height="71.937px" viewBox="0 0 100 71.937" overflow="visible" enable-background="new 0 0 100 71.937" xml:space="preserve">
    <path d="M100,61.624v10.313h-3.72v-6.642h-9.195v6.642h-3.717v-6.642h-9.346v6.642H69.9v-6.642h-9.345v6.642h-3.713v-6.642 h-9.352v6.642h-3.707v-6.642H34.44v6.642h-3.712v-6.642H21.37v6.642h-3.721v-6.642H6.604v-9.343H0v-3.716h6.604v-9.349H0 v-3.707h6.604v-9.345H0V26.12h6.604v-9.349H0v-3.709h6.604V3.716H0V0h10.319v61.588h89.267V61.624z"/>
    <rect x="17.649" y="39.181" width="16.792" height="19.064"/>
    <rect x="43.784" y="26.12" width="16.792" height="32.126"/>
    <rect x="69.9" y="" width="16.791" height="58.246"/>
</svg>