<?xml version="1.0" encoding="utf-8"?>
<!-- Generator: Adobe Illustrator 14.0.0, SVG Export Plug-In . SVG Version: 6.00 Build 43363)  -->
<!DOCTYPE svg PUBLIC "-//W3C//DTD SVG 1.0//EN" "http://www.w3.org/TR/2001/REC-SVG-20010904/DTD/svg10.dtd">
<svg version="1.0" id="Layer_1" xmlns="http://www.w3.org/2000/svg" xmlns:xlink="http://www.w3.org/1999/xlink" x="0px" y="0px"
	 width="99.47px" height="100px" viewBox="0 0 99.47 100" enable-background="new 0 0 99.47 100" xml:space="preserve">
<path d="M53.526,11.186c3.075,0,5.572-2.497,5.572-5.573c0-3.072-2.497-5.573-5.572-5.573c-3.076,0-5.569,2.5-5.569,5.573
	C47.957,8.688,50.45,11.186,53.526,11.186z"/>
<path d="M23.294,11.222c-3.127,0-5.653-2.512-5.653-5.613C17.642,2.512,20.167,0,23.294,0c3.123,0,5.656,2.512,5.656,5.609
	C28.95,8.71,26.417,11.222,23.294,11.222z"/>
<circle cx="81.209" cy="28.821" r="3.909"/>
<path d="M86.873,34.659c-1.376,0-9.212,0-10.548,0c-0.048,0-3.526-0.316-3.526-0.316l-4.415-15.397
	c-1.779-6.195-6.974-6.006-6.974-6.006h-7.276h-7.021c0,0-5.19-0.189-6.97,6.006l-2.177,7.582l-2.177-7.582
	c-1.783-6.195-6.97-6.006-6.97-6.006h-5.536h-5.525c0,0-5.194-0.189-6.971,6.006L6.333,34.459c-0.422,1.452,0.371,2.556,1.641,2.923
	c1.267,0.364,2.562-0.276,2.89-1.434l4.335-15.12l2.115-0.004l-6.329,26.183h5.594v0.007v18.589c0,1.532,1.234,2.777,2.77,2.777
	c1.533,0,2.785-1.245,2.785-2.777V47.006h2.344v18.596c0,1.532,1.237,2.777,2.77,2.777c1.536,0,2.785-1.245,2.785-2.777V47.014
	v-0.007h5.5l-6.268-26.183l2.107,0.004l4.284,14.963c0.069,0.255,0.186,0.484,0.334,0.692c0.422,0.63,1.154,0.987,1.973,0.961
	c0.815,0.026,1.543-0.324,1.962-0.95c0.174-0.226,0.294-0.484,0.364-0.772l4.266-14.895l1.947-0.004c0,0,0,41.568,0,44.24
	c0,1.806,1.477,3.27,3.283,3.27c1.805,0,3.268-1.464,3.268-3.27c0-2.672,0-25.17,0-25.17h2.417c0,0,0,22.498,0,25.17
	c0,1.806,1.464,3.27,3.266,3.27c1.809,0,3.29-1.464,3.29-3.27c0-2.672,0-44.24,0-44.24l2.114,0.004l4.153,15.12
	c0.219,0.747,0.845,1.238,1.59,1.423c0.029,0.007,0.048,0.029,0.077,0.033c0.658,0.149,3.705,1.012,5.95,1.653
	c0,4.083,0,25.733,0,27.438c0,1.267,1.037,2.297,2.301,2.297c1.267,0,2.297-1.03,2.297-2.297c0-1.879,0-13.708,0-13.708h1.798
	c0,0,0,11.829,0,13.708c0,1.267,1.026,2.297,2.293,2.297s2.308-1.03,2.308-2.297c0-1.879,0-25.629,0-25.629h1.766
	c0,0,0,7.589,0,8.689c0,0.946,0.771,1.718,1.71,1.718c0.946,0,1.689-0.772,1.689-1.718c0-0.943,0-8.474,0-9.883
	C92.071,36.905,89.639,34.659,86.873,34.659z"/>
<path d="M74.913,89.033c-1.077-0.834-2.158-1.696-3.254-2.57c-0.91-0.724-1.823-1.456-2.743-2.173
	c-5.508-4.303-11.233-8.227-17.606-8.798c-0.528-0.048-1.059-0.076-1.594-0.076c-0.539,0-1.066,0.069-1.594,0.116
	c-6.392,0.579-12.139,4.48-17.66,8.798c0.193,0.153,0.386,0.306,0.579,0.459c0.673,0.535,1.333,1.048,1.999,1.572
	c5.489-4.255,10.843-7.761,16.677-7.761c5.813,0,11.153,3.487,16.624,7.725c1.106,0.852,2.217,1.736,3.333,2.631
	c0.885,0.703,1.772,1.413,2.664,2.111C78.324,95.748,84.569,100,91.616,100c2.729,0,5.336-0.651,7.854-1.707v-3.479
	c-2.555,1.229-5.154,2.001-7.854,2.001C85.777,96.814,80.417,93.299,74.913,89.033z"/>
<path d="M72.339,84.353c0.183,0.146,0.368,0.291,0.55,0.437c0.681,0.546,1.354,1.062,2.027,1.598c1.99-1.54,3.968-2.978,5.95-4.189
	v8.561c1.063,0.695,2.126,1.34,3.188,1.882V80.486c1.966-0.918,3.961-1.547,6.003-1.766v15.855c0.491,0.059,0.982,0.113,1.478,0.113
	c0.571,0,1.143-0.055,1.711-0.131V78.699c2.122,0.229,4.186,0.902,6.224,1.878v-3.473c-2.508-1.045-5.103-1.688-7.818-1.688
	C84.601,75.416,78.341,79.667,72.339,84.353z"/>
<path d="M27.04,91.104c-0.211-0.168-0.426-0.335-0.637-0.507c-0.651-0.521-1.292-1.015-1.94-1.528
	c-5.481,4.248-10.832,7.745-16.655,7.745C5.125,96.814,2.544,96,0,94.7v3.513C2.504,99.319,5.092,100,7.807,100
	C14.835,100,21.066,95.771,27.04,91.104z"/>
<path d="M6.18,94.584c0.528,0.069,1.059,0.12,1.59,0.12c0.535,0,1.066-0.051,1.598-0.12V78.699c2.057,0.222,4.062,0.852,6.042,1.783
	c-0.011,0.072-0.043,0.142-0.043,0.222v11.893c1.059-0.55,2.122-1.19,3.188-1.89v-8.506c3.046,1.871,6.071,4.276,9.172,6.752
	C34.534,94.384,41.573,100,49.675,100c7.021,0,13.256-4.219,19.237-8.878c-0.219-0.175-0.44-0.35-0.659-0.524
	c-0.647-0.513-1.281-1.004-1.918-1.51c-1.955,1.51-3.891,2.911-5.838,4.109v-8.423c-1.067-0.702-2.13-1.343-3.188-1.893v11.833
	c0,0.065,0.028,0.12,0.036,0.182c-1.977,0.932-3.982,1.572-6.035,1.798V80.857c-0.557-0.076-1.11-0.128-1.667-0.128
	c-0.51,0-1.016,0.055-1.521,0.117v15.877c-2.063-0.218-4.073-0.844-6.053-1.772c0.011-0.08,0.047-0.152,0.047-0.236V82.806
	c-1.062,0.542-2.125,1.187-3.188,1.885v8.547c-3.061-1.875-6.097-4.288-9.212-6.774c-6.806-5.431-13.842-11.047-21.94-11.047
	c-2.701,0-5.278,0.601-7.774,1.572v3.439c2.023-0.899,4.073-1.525,6.18-1.736V94.584z"/>
</svg>
