<?xml version="1.0" encoding="utf-8"?>
<!-- Generator: Adobe Illustrator 15.1.0, SVG Export Plug-In . SVG Version: 6.00 Build 0)  -->
<!DOCTYPE svg PUBLIC "-//W3C//DTD SVG 1.1//EN" "http://www.w3.org/Graphics/SVG/1.1/DTD/svg11.dtd">
<svg version="1.1" id="Layer_1" xmlns="http://www.w3.org/2000/svg" xmlns:xlink="http://www.w3.org/1999/xlink" x="0px" y="0px"
	 width="79.048px" height="100px" viewBox="0 0 79.048 100" enable-background="new 0 0 79.048 100" xml:space="preserve">
<path d="M74.654,77.027l-3.905-6.764c-1.341,1.238-2.793,2.352-4.299,3.389l-1.89-3.273c8.75-6.106,14.488-16.232,14.488-27.715
	c0-18.663-15.129-33.793-33.794-33.793c-5.136,0-9.985,1.18-14.343,3.229l-1.93-3.342c1.637-0.789,3.331-1.477,5.087-2.025L30.182,0
	C12.618,6.223,0,22.994,0,42.664C0,66.655,18.77,86.338,42.393,87.82v2.532c-6.455,1.266-21.45,4.751-20.429,9.647h46.622
	c0.396-4.973-14.176-8.404-20.474-9.651v-2.558C58.208,87.154,67.419,83.226,74.654,77.027z M7.625,42.664
	c0-12.878,6.515-24.249,16.409-31.036l1.917,3.321c-8.752,6.106-14.491,16.235-14.491,27.715c0,18.665,15.13,33.796,33.793,33.796
	c5.137,0,9.987-1.181,14.346-3.23l1.91,3.307c-4.923,2.387-10.427,3.759-16.258,3.759C24.506,80.295,7.625,63.412,7.625,42.664z"/>
</svg>
