<svg xmlns="http://www.w3.org/2000/svg" xmlns:xlink="http://www.w3.org/1999/xlink" version="1.1" id="Layer_1" x="0px" y="0px" width="100px" height="100px" viewBox="0 0 100 100" enable-background="new 0 0 100 100" xml:space="preserve">
<path fill="#000000" d="M96.45,47.819c0.646-2.775,0.961-3.885-0.372-4.861c-1.328-0.977-2.786-2.178-8.259-3.657  c-5.438-1.47-2.534-0.217-10.295-2.951c-7.701-2.895-4.673-1.989-9.782-4.358c-5.143-2.384-7.032-2.4-8.68-2.506  c-1.646-0.109-2.118,0.943-3.411,3.483c-1.291,2.541-2.555,11.308-4.784,20.883c-2.232,9.57-1.667,10.056,0.488,17.909  c2.157,7.854,2.39,12.14,8.106,14.22c5.714,2.079,8.543-1.093,15.241-5.721c6.7-4.632,7.552-4.601,11.994-13.369  C91.144,58.125,95.809,50.599,96.45,47.819z M64.87,72.644c-3.263-1.188-10.468,1.086-8.707-5.017  c1.492-5.371,6.742,0.512,9.842,1.641c3.101,1.128,10.615-0.479,8.826,4.69C73.041,79.127,68.135,73.832,64.87,72.644z   M76.652,54.818c1.521-0.368,6.572-0.578,7.93,2.332c0.934,2.006,0.236,3.413-1.522,3.421C81.303,60.577,78.781,57.35,76.652,54.818  z M58.504,51.633c-1.344-1.136-0.973-2.665,1.031-3.599c2.914-1.357,6.645,2.05,7.573,3.311  C63.851,51.916,59.844,52.766,58.504,51.633z"/>
<path fill="#000000" d="M44.501,16.875c-1.296-2.549-1.771-3.607-3.424-3.498c-1.65,0.107-3.549,0.125-8.709,2.518  c-5.131,2.379-2.09,1.468-9.82,4.374c-7.789,2.743-4.875,1.486-10.334,2.962c-5.492,1.484-6.956,2.69-8.292,3.67  c-1.333,0.98-1.019,2.093-0.375,4.88c0.648,2.789,5.333,10.342,9.791,19.142c4.46,8.798,5.208,8.808,11.933,13.457  c6.725,4.647,9.668,7.79,15.406,5.702s5.864-6.35,8.027-14.23c2.165-7.886,2.837-8.412,0.598-18.019  C47.066,28.225,45.799,19.427,44.501,16.875z M15.373,43.144c1.354-2.37,1.733-3.198,4.054-4.001  c2.321-0.805,4.65,0.057,5.047,1.059C20.9,42.783,15.373,43.144,15.373,43.144z M36.715,59.36  c-4.652,1.693-9.079-0.948-11.252-3.675c5.124,0.562,8.35-0.261,9.647-0.732c1.297-0.475,4.298-1.917,7.861-5.64  C43.059,52.8,41.364,57.668,36.715,59.36z M33.775,36.816c-0.337-1.022,0.891-3.179,3.185-4.055c2.293-0.877,3.116-0.486,5.678,0.46  C42.639,33.221,38.172,36.496,33.775,36.816z"/>
</svg>