<?xml version="1.0" encoding="utf-8"?>
<!-- Generator: Adobe Illustrator 14.0.0, SVG Export Plug-In . SVG Version: 6.00 Build 43363)  -->
<!DOCTYPE svg PUBLIC "-//W3C//DTD SVG 1.0//EN" "http://www.w3.org/TR/2001/REC-SVG-20010904/DTD/svg10.dtd">
<svg version="1.0" id="Layer_1" xmlns="http://www.w3.org/2000/svg" xmlns:xlink="http://www.w3.org/1999/xlink" x="0px" y="0px"
	 width="84.039px" height="100px" viewBox="0 0 84.039 100" enable-background="new 0 0 84.039 100" xml:space="preserve">
<path d="M46.095,0C28.879,0,13.002,12.93,9.704,27.17c-0.732,3.165-1.562,11.435-1.562,11.435L0.235,58.566
	C0.076,58.922,0,59.333,0,59.754c0,1.686,1.361,3.054,3.054,3.054h5.088v10.605c0,8.272,6.691,14.972,14.954,14.972h5.945V100
	h22.094v-5.184h8.999V100h9.396V67.792c8.83-6.943,14.509-17.735,14.509-29.837C84.039,16.989,67.06,0,46.095,0z M17.479,46.167
	c-2.353,0-4.263-1.907-4.263-4.26c0-2.346,1.911-4.249,4.263-4.249c2.332,0,4.245,1.903,4.245,4.249
	C21.725,44.261,19.811,46.167,17.479,46.167z M51.135,74.045h8.999v4.867h-8.999V74.045z M51.135,67.12h8.999v4.863h-8.999V67.12z
	 M51.135,80.964h8.999v4.874h-8.999V80.964z M51.135,87.891h8.999v4.874h-8.999V87.891z M51.135,60.197h9.054
	c-0.017,0.355-0.055,0.708-0.055,1.074v3.793h-8.999V60.197z M76.048,32.145c0,2.591-1.016,4.943-2.667,6.695
	c-0.283,3.696-2.625,6.816-5.89,8.223v0.034c-3.986,2.322-6.37,6.284-7.095,11.038H56.71V47.107
	c0.024-3.438,1.105-5.639,3.372-6.997c0.829-0.477,1.582-1.022,2.225-1.627c1.682,0.604,3.171,1.79,4.117,3.475
	c0.197,0.332,0.55,0.518,0.898,0.518c0.169,0,0.346-0.042,0.504-0.135c0.505-0.276,0.685-0.905,0.401-1.402h-0.007
	c-1.061-1.886-2.674-3.278-4.505-4.107c0.939-1.444,1.461-3.164,1.438-5.23c0-0.01,0.014-0.021,0.014-0.035
	c0-0.933-0.139-1.841-0.387-2.694c2.151-0.411,4.048-1.502,5.443-3.041c0.387-0.425,0.359-1.078-0.068-1.458
	c-0.426-0.383-1.068-0.349-1.448,0.065c-1.216,1.323-2.856,2.228-4.722,2.477c-1.499-2.777-4.287-4.75-7.555-5.109
	c0.218-1.762,1.012-3.333,2.207-4.528c0.394-0.401,0.394-1.055,0-1.452c-0.4-0.404-1.063-0.404-1.465,0
	c-1.53,1.531-2.553,3.576-2.809,5.853c-3.838-0.484-6.794-3.741-6.801-7.708c0-0.563-0.467-1.033-1.02-1.033
	c-0.584,0-1.04,0.47-1.04,1.033c0,0.67,0.065,1.309,0.193,1.938c-1.454,1.258-3.264,1.894-5.077,1.894
	c-0.895,0-1.793-0.159-2.64-0.466c0,0-0.014-0.003-0.024-0.007c-1.043-0.377-2-0.975-2.829-1.804c-0.397-0.401-1.054-0.401-1.458,0
	c-0.404,0.4-0.404,1.05,0,1.455c0.85,0.846,1.807,1.502,2.826,1.976c-0.204,2.566-1.696,4.774-3.782,6.014
	c-1.206-1.831-3.02-3.282-5.248-3.99c-0.556-0.173-1.133,0.127-1.309,0.67c-0.152,0.542,0.125,1.119,0.674,1.289
	c1.654,0.525,2.984,1.544,3.941,2.843c-0.643,0.173-1.302,0.266-2.004,0.266c0,0,0,0-0.01,0h-0.114
	c-2.646,0-5.078,1.054-6.847,2.778c-0.418,0.397-0.428,1.05-0.018,1.455c0.197,0.207,0.467,0.311,0.747,0.311
	c0.235,0,0.494-0.097,0.694-0.291c1.402-1.368,3.316-2.193,5.423-2.193h0.11h0.003h0.01c4.961,0,9.082-3.694,9.728-8.482
	c0.705,0.152,1.409,0.235,2.125,0.235c2.014,0,4.045-0.625,5.755-1.862c0.625,1.427,1.613,2.674,2.812,3.641
	c-1.223,1.506-1.941,3.295-2.131,5.126c-0.516-0.083-1.058-0.128-1.6-0.128c-1.555,0-3.133,0.37-4.601,1.155
	c-0.504,0.266-0.694,0.891-0.429,1.396c0.187,0.342,0.549,0.542,0.919,0.542c0.169,0,0.321-0.038,0.47-0.125
	c1.181-0.618,2.418-0.912,3.641-0.912c0.546,0,1.084,0.059,1.6,0.169c0.224,2.086,1.126,4.128,2.677,5.751
	c0.207,0.214,0.474,0.318,0.739,0.318c0.252,0,0.515-0.093,0.719-0.283c0.421-0.397,0.432-1.043,0.031-1.454h-0.008
	c-1.378-1.458-2.106-3.31-2.155-5.182c0-0.028,0.007-0.048,0-0.08c0-0.038,0-0.076,0-0.114c0-1.818,0.629-3.615,1.872-5.059
	c1.31,0.653,2.802,1.033,4.381,1.033c0,0,0.007,0.003,0.017,0.003c0,0,0.007,0,0.018,0c4.276,0.014,7.738,3.47,7.755,7.746
	c-0.812-0.214-1.647-0.325-2.504-0.325c-1.227,0-2.47,0.225-3.669,0.719c-0.532,0.217-0.784,0.815-0.569,1.34
	c0.217,0.525,0.808,0.78,1.336,0.566c0.961-0.384,1.938-0.57,2.902-0.57c0.777,0,1.547,0.118,2.27,0.342
	c-0.252,1.154-0.746,2.08-1.514,2.902c-0.059,0.052-0.113,0.11-0.158,0.179c-0.588,0.577-1.292,1.109-2.163,1.638
	c-2.98,1.741-4.411,4.898-4.38,8.769v11.027h-3.517V47.646c0-3.852-2.415-7.504-5.454-8.803c-1.451-0.563-2.964-1.506-4.066-2.739
	c-1.572,1.067-3.458,1.696-5.486,1.696c-2.034,0-3.92-0.618-5.482-1.679c-1.554,1.022-3.43,1.62-5.437,1.62
	c-5.517,0-9.977-4.47-9.977-9.98c0-4.119,2.491-7.652,6.056-9.172c0.964-4.395,4.857-7.683,9.541-7.683
	c0.249,0,0.477,0.021,0.708,0.034c1.766-2.58,4.733-4.273,8.094-4.273c1.665,0,3.227,0.415,4.598,1.154
	c1.548-1.029,3.399-1.627,5.393-1.627c2.56,0,4.892,0.998,6.639,2.618c0.732-0.176,1.489-0.28,2.28-0.28
	c3.955,0,7.375,2.38,8.902,5.79c4.014,1.216,6.937,4.94,6.937,9.349c0,0.884-0.118,1.737-0.335,2.549
	C75.295,27.865,76.048,29.917,76.048,32.145z"/>
</svg>
