<?xml version="1.0" encoding="utf-8"?>
<!-- Generator: Adobe Illustrator 15.1.0, SVG Export Plug-In . SVG Version: 6.00 Build 0)  -->
<!DOCTYPE svg PUBLIC "-//W3C//DTD SVG 1.1//EN" "http://www.w3.org/Graphics/SVG/1.1/DTD/svg11.dtd">
<svg version="1.1" id="Layer_1" xmlns="http://www.w3.org/2000/svg" xmlns:xlink="http://www.w3.org/1999/xlink" x="0px" y="0px"
	 width="100px" height="91.46px" viewBox="0 0 100 91.46" enable-background="new 0 0 100 91.46" xml:space="preserve">
<path fill="#231F20" d="M58.221,50.588c-0.948-0.572-2.302-1.1-3.991-1.583v11.38c0.645-0.108,1.243-0.253,1.772-0.436
	c2.896-1.016,4.343-2.891,4.343-5.639C60.346,52.709,59.64,51.469,58.221,50.588z"/>
<path fill="#231F20" d="M40.043,32.189c0,1.739,0.788,3.039,2.361,3.892c0.671,0.377,1.837,0.794,3.486,1.257V26.472
	c-1.331,0.26-2.503,0.676-3.449,1.309C40.841,28.829,40.043,30.308,40.043,32.189z"/>
<path fill="#231F20" d="M91.408,8.523C79.943-2.882,61.404-2.837,49.999,8.634C38.594-2.837,20.056-2.882,8.591,8.523
	C-2.875,19.924-3.141,38.309,9.467,50.919c14.075,14.068,36.592,36.597,40.53,40.541c3.944-3.944,26.457-26.472,40.532-40.541
	C103.143,38.309,102.873,19.923,91.408,8.523z M64.993,64.604c-2.705,2.318-6.3,3.705-10.763,4.192v4.89h-8.337v-4.947
	c-4.277-0.539-7.793-1.895-10.54-4.061c-3.666-2.894-5.496-6.863-5.496-11.918h9.69c0.31,2.221,0.932,3.881,1.85,4.981
	c1.038,1.229,2.539,2.075,4.494,2.56V47.085c-4.99-1.12-8.438-2.344-10.335-3.652c-3.273-2.24-4.913-5.749-4.913-10.515
	c0-4.355,1.602-7.961,4.812-10.845c2.531-2.28,6.02-3.641,10.437-4.115v-4.343c0-0.008-0.003-0.008-0.003-0.008l8.341,0.015v4.551
	c3.223,0.592,6.092,1.796,8.604,3.652c3.663,2.722,5.576,6.653,5.759,11.817h-9.759c-0.184-2.917-1.487-4.995-3.924-6.225
	c-0.212-0.11-0.448-0.188-0.681-0.28v12.227l3.156,0.743c3.737,0.878,6.539,2.057,8.406,3.521c2.896,2.292,4.348,5.601,4.348,9.929
	C70.142,57.989,68.419,61.684,64.993,64.604z"/>
</svg>
