<?xml version="1.0" encoding="utf-8"?>
<!-- Generator: Adobe Illustrator 14.0.0, SVG Export Plug-In . SVG Version: 6.00 Build 43363)  -->
<!DOCTYPE svg PUBLIC "-//W3C//DTD SVG 1.0//EN" "http://www.w3.org/TR/2001/REC-SVG-20010904/DTD/svg10.dtd">
<svg version="1.0" id="Layer_1" xmlns="http://www.w3.org/2000/svg" xmlns:xlink="http://www.w3.org/1999/xlink" x="0px" y="0px"
	 width="87.572px" height="100px" viewBox="0 0 87.572 100" enable-background="new 0 0 87.572 100" xml:space="preserve">
<path id="path2299" d="M43.794,0c-6.385,0-11.575,5.01-11.575,11.196c0,4.554,2.815,8.479,6.844,10.23l-0.119,5.802H7.877v6.134
	h30.929l-0.936,44.47c-0.018,0.897,0.008,9.934-12.405,3.687c-12.449-6.265-5.414-13.36-4.578-13.569
	C13.573,65.697,6.944,59.436,1.59,53.006c-5.254,11.458,4.155,23.688,4.609,25.433c1.129-1.21,2.818-1.017,3.853-0.847
	C22.724,96.91,39.336,94.597,43.794,100c4.458-5.403,21.055-3.09,33.727-22.408c1.035-0.17,2.724-0.363,3.853,0.847
	c0.454-1.744,9.863-13.975,4.608-25.433c-5.354,6.43-11.982,12.691-19.296,14.944c0.835,0.209,7.87,7.305-4.578,13.569
	c-12.413,6.247-12.386-2.789-12.405-3.687l-0.938-44.47h30.932v-6.134H48.629l-0.122-5.802c4.031-1.752,6.847-5.677,6.847-10.23
	C55.354,5.01,50.179,0,43.794,0z M43.794,7.101c2.261,0,4.095,1.834,4.095,4.095c0,2.262-1.834,4.095-4.095,4.095
	s-4.111-1.833-4.111-4.095C39.683,8.935,41.533,7.101,43.794,7.101z"/>
</svg>
