<?xml version="1.0" encoding="utf-8"?>
<!-- Generator: Adobe Illustrator 14.0.0, SVG Export Plug-In . SVG Version: 6.00 Build 43363)  -->
<!DOCTYPE svg PUBLIC "-//W3C//DTD SVG 1.0//EN" "http://www.w3.org/TR/2001/REC-SVG-20010904/DTD/svg10.dtd">
<svg version="1.0" id="Layer_1" xmlns="http://www.w3.org/2000/svg" xmlns:xlink="http://www.w3.org/1999/xlink" x="0px" y="0px"
	 width="89.3px" height="100px" viewBox="0 0 89.3 100" enable-background="new 0 0 89.3 100" xml:space="preserve">
<g>
	<circle cx="44.649" cy="50.001" r="8.07"/>
	<path d="M44.649,50.001"/>
</g>
<path d="M22.954,50.001C22.954,22.387,32.667,0,44.649,0c11.985,0,21.7,22.387,21.7,50.001c0,27.614-9.715,49.999-21.7,49.999
	C32.667,100,22.954,77.615,22.954,50.001z M44.649,95.767c10.969,0,19.86-20.489,19.86-45.765c0-25.277-8.891-45.765-19.86-45.765
	c-10.967,0-19.858,20.488-19.858,45.765C24.791,75.277,33.683,95.767,44.649,95.767z"/>
<path d="M55.5,68.791C31.584,82.6,7.34,85.378,1.349,75.001C-4.642,64.623,9.887,45.017,33.802,31.21
	c23.915-13.806,48.159-16.588,54.15-6.209C93.944,35.378,79.414,54.984,55.5,68.791z M84.286,27.118
	c-5.484-9.499-27.677-6.953-49.564,5.684C12.832,45.438-0.468,63.385,5.016,72.884C10.5,82.382,32.691,79.837,54.58,67.2
	C76.469,54.563,89.77,36.617,84.286,27.118z"/>
<path d="M55.5,31.21c23.913,13.807,38.443,33.413,32.451,43.791c-5.991,10.377-30.235,7.599-54.15-6.21
	C9.887,54.984-4.642,35.376,1.349,25.001C7.34,14.622,31.584,17.404,55.5,31.21z M5.016,27.118
	c-5.484,9.499,7.816,27.443,29.706,40.082c21.887,12.637,44.08,15.182,49.564,5.684c5.484-9.499-7.816-27.445-29.706-40.082
	C32.691,20.164,10.5,17.62,5.016,27.118z"/>
</svg>
