<svg xmlns="http://www.w3.org/2000/svg" xmlns:xlink="http://www.w3.org/1999/xlink" version="1.1" id="Layer_1" x="0px" y="0px" width="100px" height="100px" viewBox="0 0 100 100" enable-background="new 0 0 100 100" xml:space="preserve">
<path fill-rule="evenodd" clip-rule="evenodd" d="M35.405,0.5c0.616,0,1.237,0,1.854,0c-0.234,1.999-0.476,4.061-0.725,6.188  c2.243,0,4.483,0,6.727,0c2.24,0,4.488,0,6.744,0.012c2.236,0,4.476,0,6.723,0c2.24,0,4.479,0,6.729,0  c-0.251-2.139-0.491-4.189-0.727-6.2c0.613,0,1.233,0,1.854,0c0.266,2.01,0.545,4.061,0.831,6.2c0.329,2.454,0.677,5.02,1.038,7.702  c0.339,2.526,0.693,5.156,1.063,7.899c0.427,3.187,0.879,6.521,1.35,10.039c0.447,3.355,0.922,6.84,1.413,10.514  c0.572,4.278,1.186,8.81,1.829,13.615c0.621,4.593,1.274,9.475,1.967,14.632c0.818,6.058,1.692,12.544,2.63,19.528  c0.384,2.853,0.791,5.866,1.196,8.871c-1.184,0-2.368,0-3.545,0c-0.354-3.005-0.709-6.019-1.043-8.871c-3.896,0-7.779,0-11.661,0  c-3.888,0-7.775,0-11.65,0c-3.903,0-7.795,0-11.682,0c-3.883,0-7.771,0-11.654,0c-0.334,2.853-0.689,5.866-1.043,8.871  c-1.184,0-2.369,0-3.545,0c0.407-3.005,0.814-6.019,1.197-8.871c0.938-6.984,1.813-13.471,2.63-19.528  c0.693-5.157,1.35-10.039,1.97-14.632c0.648-4.805,1.257-9.341,1.833-13.623c0.495-3.666,0.967-7.163,1.417-10.518  c0.476-3.513,0.923-6.84,1.35-10.027c0.371-2.751,0.725-5.386,1.067-7.919c0.359-2.675,0.705-5.25,1.036-7.694  C34.861,4.561,35.14,2.499,35.405,0.5L35.405,0.5z M33.593,0.5c-0.62,0-1.236,0-1.853,0c-0.335,1.999-0.681,4.061-1.04,6.188  c-1.894,0-3.787,0-5.668,0c-0.535,2.445-1.095,5.02-1.68,7.694c2.01,0,4.033,0,6.051,0c-0.427,2.534-0.87,5.156-1.333,7.919  c-2.152,0-4.299,0-6.442,0c-0.693,3.179-1.418,6.514-2.187,10.027c2.304,0,4.621,0,6.941,0c-0.568,3.347-1.157,6.852-1.773,10.514  c-2.489,0-4.979,0-7.456,0c-0.935,4.286-1.922,8.822-2.969,13.627c2.699,0,5.415,0,8.129,0c-0.773,4.593-1.595,9.475-2.465,14.632  c-2.957,0-5.914,0-8.854,0c-1.322,6.058-2.735,12.544-4.258,19.528c3.263,0,6.542,0,9.821,0c-0.479,2.853-0.987,5.866-1.494,8.871  c1.176,0,2.36,0,3.544,0c0.455-3.005,0.911-6.019,1.342-8.871c1.059-6.984,2.038-13.471,2.956-19.528  c0.782-5.157,1.523-10.039,2.216-14.632c0.729-4.805,1.417-9.341,2.062-13.623c0.556-3.666,1.084-7.171,1.591-10.518  c0.532-3.513,1.04-6.84,1.519-10.027c0.418-2.763,0.817-5.386,1.2-7.919c0.403-2.675,0.793-5.25,1.165-7.694  C32.98,4.561,33.291,2.499,33.593,0.5L33.593,0.5z M68.248,0.5c-0.62,0-1.236,0-1.854,0c0.303,2.01,0.613,4.061,0.936,6.2  c0.371,2.454,0.761,5.02,1.168,7.702c0.383,2.526,0.782,5.156,1.196,7.912c0.479,3.174,0.987,6.509,1.52,10.026  c0.503,3.355,1.03,6.84,1.586,10.514c0.648,4.278,1.334,8.81,2.059,13.615c0.697,4.593,1.431,9.475,2.212,14.632  c0.918,6.058,1.9,12.544,2.956,19.528c0.432,2.853,0.887,5.866,1.347,8.871c1.172,0,2.355,0,3.54,0  c-0.507-3.005-1.016-6.019-1.495-8.871c3.279,0,6.559,0,9.846,0c-1.522-6.984-2.933-13.471-4.254-19.528c-2.965,0-5.921,0-8.878,0  c-0.871-5.157-1.691-10.039-2.465-14.632c2.714,0,5.43,0,8.153,0c-1.049-4.805-2.034-9.337-2.965-13.615c-2.498,0-4.987,0-7.477,0  c-0.62-3.674-1.209-7.159-1.773-10.514c2.316,0,4.633,0,6.958,0c-0.77-3.513-1.495-6.852-2.188-10.026c-2.155,0-4.306,0-6.457,0  c-0.464-2.755-0.906-5.386-1.334-7.912c2.023,0,4.045,0,6.066,0c-0.584-2.683-1.143-5.245-1.675-7.702c-1.901,0-3.795,0-5.688,0  C68.934,4.561,68.582,2.51,68.248,0.5L68.248,0.5z M50.004,14.39c-2.404,0-4.802,0-7.194,0c-2.397,0-4.79,0-7.183-0.008  c-0.294,2.542-0.604,5.168-0.927,7.919c2.546,0,5.096,0,7.642,0c2.546,0,5.101,0,7.662,0c2.543,0,5.087,0,7.638,0s5.096,0,7.65,0  c-0.322-2.743-0.633-5.378-0.932-7.899c-2.396-0.012-4.789-0.012-7.182-0.012C54.785,14.39,52.389,14.39,50.004,14.39L50.004,14.39z   M50.004,32.34c-2.759,0-5.506,0-8.254,0c-2.744,0-5.486,0-8.229,0c-0.395,3.343-0.806,6.84-1.237,10.506c2.949,0,5.897,0,8.85,0  c2.949,0,5.906,0.008,8.871,0.008c2.941,0,5.894,0,8.842,0c2.949,0,5.898,0,8.855,0c-0.428-3.674-0.839-7.167-1.232-10.514  c-2.748,0-5.496,0-8.238,0C55.486,32.34,52.739,32.34,50.004,32.34L50.004,32.34z M50,56.469c-3.23,0-6.453,0-9.668,0  c-3.218,0-6.433,0-9.651,0c-0.54,4.593-1.112,9.475-1.721,14.632c3.505,0,7.005,0,10.51,0c3.5,0,7.014,0,10.53,0  c3.497,0,7.002,0,10.502,0s7.005,0,10.518,0c-0.608-5.157-1.18-10.039-1.721-14.632c-3.222,0-6.44,0-9.655,0  C56.43,56.469,53.211,56.469,50,56.469z"/>
</svg>