<?xml version="1.0" encoding="utf-8"?>
<!-- Generator: Adobe Illustrator 14.0.0, SVG Export Plug-In . SVG Version: 6.00 Build 43363)  -->
<!DOCTYPE svg PUBLIC "-//W3C//DTD SVG 1.0//EN" "http://www.w3.org/TR/2001/REC-SVG-20010904/DTD/svg10.dtd">
<svg version="1.0" id="Layer_1" xmlns="http://www.w3.org/2000/svg" xmlns:xlink="http://www.w3.org/1999/xlink" x="0px" y="0px"
	 width="100px" height="96.261px" viewBox="0 0 100 96.261" enable-background="new 0 0 100 96.261" xml:space="preserve">
<path d="M29.526,52.639l4.475,2.738c0.755,0,1.136-0.312,1.136-0.936c0-0.399-0.182-0.954-0.534-1.669l-9.887-18.571L2.804,34.737
	c-0.98,0.046-1.469,0.557-1.469,1.536c0,0.223,0.311,0.534,0.935,0.935l4.543,2.738l-4.81,7.48C0.668,49.565,0,51.327,0,52.706
	c0,1.25,0.442,2.652,1.335,4.209l14.897,25.984c-0.357-1.646-0.534-3.206-0.534-4.677c0-2.623,0.821-5.209,2.47-7.748L29.526,52.639
	L29.526,52.639z"/>
<path d="M35.271,37.476l12.291-19.038c-4.59-10.464-9.466-15.7-14.63-15.7c-3.119,0-5.208,0.871-6.277,2.605L15.029,23.916
	L35.271,37.476L35.271,37.476z"/>
<path d="M25.251,89.044h23.714V64.396H26.119c-2.806,4.007-4.566,6.728-5.277,8.15c-1.16,2.27-1.736,4.589-1.736,6.945
	C19.106,85.862,21.152,89.044,25.251,89.044L25.251,89.044z"/>
<path d="M74.083,32.933l10.553-17.77c0.355-0.621,0.534-1.269,0.534-1.936c0-0.802-0.267-1.203-0.8-1.203
	c0.084,0-0.268,0.134-1.069,0.401l-4.81,2.204l-4.408-8.75C72.121,1.961,68.204,0,62.325,0H34.871
	c3.339,1.026,5.609,2.027,6.812,3.006c2.807,2.228,5.678,6.413,8.617,12.558l5.479,11.491l-4.077,1.938
	c-0.4,0.18-0.6,0.534-0.6,1.068c0,0.668,0.421,1.05,1.269,1.136L74.083,32.933L74.083,32.933z"/>
<path d="M84.635,85.372L100,57.449c-2.271,2.585-4.743,4.322-7.414,5.211c-2.138,0.714-5.193,1.069-9.154,1.069h-17.1v-3.542
	c0-1.379-0.335-2.071-1.003-2.071c-0.491,0-0.849,0.182-1.068,0.535l-10.82,18.771l11.222,17.236
	c0.847,1.292,1.579,1.803,2.204,1.534c0.621-0.177,0.936-0.509,0.936-1v-5.88h9.485C80.762,89.312,83.21,88,84.635,85.372
	L84.635,85.372z"/>
<path d="M77.956,60.187h10.222c2.447,0,4.985-1.068,7.614-3.205c2.806-2.226,4.209-4.587,4.209-7.083
	c0-1.154-0.382-2.291-1.137-3.406L86.708,27.923L65.796,40.083L77.956,60.187L77.956,60.187z"/>
</svg>
