<?xml version="1.0" encoding="utf-8"?>
<!-- Generator: Adobe Illustrator 15.1.0, SVG Export Plug-In . SVG Version: 6.00 Build 0)  -->
<!DOCTYPE svg PUBLIC "-//W3C//DTD SVG 1.1//EN" "http://www.w3.org/Graphics/SVG/1.1/DTD/svg11.dtd">
<svg version="1.1" id="Layer_1" xmlns="http://www.w3.org/2000/svg" xmlns:xlink="http://www.w3.org/1999/xlink" x="0px" y="0px"
	 width="51.856px" height="100px" viewBox="0 0 51.856 100" enable-background="new 0 0 51.856 100" xml:space="preserve">
<circle cx="33.407" cy="2.502" r="2.5"/>
<circle cx="34.407" cy="11.501" r="2.5"/>
<circle cx="19.907" cy="20.001" r="3"/>
<circle cx="24.907" cy="8.001" r="3"/>
<circle cx="29.407" cy="20.501" r="4.5"/>
<polygon points="27.93,32.004 23.93,32.004 23.93,56.235 8.597,92.002 43.259,92.002 27.93,56.235 "/>
<path d="M50.742,89.162L35.927,54.594V32.476l1.229-2.475h-4.463l-0.766,1.532v23.881l15.21,35.482
	c0.785,1.569,0.943,3.008,0.425,3.848c-0.502,0.811-1.793,1.258-3.636,1.258H25.929h-0.001H7.93c-1.842,0-3.133-0.447-3.635-1.258
	c-0.519-0.84-0.36-2.278,0.425-3.848l15.21-35.482V31.533l-0.765-1.532h-4.463l1.229,2.475v22.118L1.114,89.162
	c-1.403,2.842-1.485,5.64-0.222,7.685c0.89,1.439,2.833,3.155,7.038,3.155h17.998h0.001h17.997c4.205,0,6.148-1.716,7.038-3.155
	C52.228,94.802,52.146,92.004,50.742,89.162z"/>
</svg>
