<?xml version="1.0" encoding="utf-8"?>
<!-- Generator: Adobe Illustrator 14.0.0, SVG Export Plug-In . SVG Version: 6.00 Build 43363)  -->
<!DOCTYPE svg PUBLIC "-//W3C//DTD SVG 1.0//EN" "http://www.w3.org/TR/2001/REC-SVG-20010904/DTD/svg10.dtd">
<svg version="1.0" id="Layer_1" xmlns="http://www.w3.org/2000/svg" xmlns:xlink="http://www.w3.org/1999/xlink" x="0px" y="0px"
	 width="98.802px" height="100px" viewBox="0 0 98.802 100" enable-background="new 0 0 98.802 100" xml:space="preserve">
<g>
	<g>
		<path d="M88.496,55.794V35.826c0-2.833,2.319-5.139,5.169-5.139c2.839,0,5.138,2.306,5.138,5.139V63.17
			c0,3.78-1.36,7.434-3.802,10.286L77.949,91.564c-1.691,1.593-2.106,3.004-2.106,5.14V100h-18.56l-0.021-7.844
			c0-2.986-0.244-6.979,3.495-10.896l21.635-21.725c0.771-0.743,1.782-1.149,2.853-1.149c2.264,0,4.105,1.837,4.105,4.097
			c0,0.977-0.346,1.924-0.977,2.67L77.938,76.332c-0.677,0.793-1.82,2.287-2.389,4.118c-0.308,0.951-0.395,1.879-0.412,2.941h3.359
			c0.014-0.758,0.069-1.366,0.251-1.931c0.328-1.057,0.983-2.006,1.475-2.616l10.593-11.626c1.332-1.343,2.062-3.082,2.062-4.909
			C92.876,59.564,91.226,57.04,88.496,55.794z"/>
	</g>
</g>
<g>
	<g>
		<path d="M10.306,55.794V35.826c0-2.833-2.319-5.139-5.169-5.139C2.298,30.687,0,32.993,0,35.826V63.17
			c0,3.78,1.36,7.434,3.802,10.286l17.052,18.107c1.691,1.593,2.106,3.004,2.106,5.14V100h18.559l0.021-7.844
			c0-2.986,0.244-6.979-3.495-10.896L16.41,59.537c-0.771-0.743-1.782-1.149-2.853-1.149c-2.263,0-4.105,1.837-4.105,4.097
			c0,0.977,0.345,1.924,0.977,2.67l10.436,11.178c0.677,0.793,1.821,2.287,2.389,4.118c0.307,0.951,0.394,1.879,0.412,2.941h-3.359
			c-0.014-0.758-0.07-1.366-0.251-1.931c-0.328-1.057-0.983-2.006-1.475-2.616L7.987,67.218c-1.333-1.343-2.061-3.082-2.061-4.909
			C5.926,59.564,7.575,57.04,10.306,55.794z"/>
	</g>
</g>
<path d="M51.354,8.845c2.435,0,4.405-1.974,4.405-4.408c0-2.428-1.971-4.405-4.405-4.405c-2.431,0-4.401,1.978-4.401,4.405
	C46.953,6.871,48.923,8.845,51.354,8.845z"/>
<path d="M27.452,8.869c-2.469,0-4.468-1.981-4.468-4.436C22.984,1.984,24.983,0,27.452,0s4.475,1.984,4.475,4.433
	C31.927,6.888,29.921,8.869,27.452,8.869z"/>
<g>
	<circle cx="73.244" cy="22.786" r="3.09"/>
	<path d="M77.718,27.4c-1.088,0-7.282,0-8.336,0c-0.038,0-2.79-0.251-2.79-0.251L63.101,14.98c-1.406-4.9-5.515-4.75-5.515-4.75
		h-5.751h-5.549c0,0-4.105-0.15-5.51,4.75l-1.723,5.992l-1.719-5.992c-1.413-4.9-5.511-4.75-5.511-4.75h-4.377h-4.367
		c0,0-4.108-0.15-5.514,4.75l-3.52,12.263c-0.334,1.147,0.293,2.019,1.297,2.309c1.001,0.286,2.026-0.22,2.285-1.133l3.428-11.953
		l1.67-0.003l-5.005,20.696h4.423v0.007V51.86c0,1.21,0.977,2.197,2.19,2.197c1.21,0,2.201-0.987,2.201-2.197V37.159h1.855V51.86
		c0,1.21,0.977,2.197,2.187,2.197c1.217,0,2.204-0.987,2.204-2.197V37.166v-0.007h4.346l-4.953-20.696l1.664,0.003l3.39,11.827
		c0.056,0.202,0.146,0.387,0.265,0.547c0.332,0.502,0.91,0.781,1.556,0.76c0.645,0.021,1.221-0.254,1.552-0.75
		c0.14-0.178,0.234-0.384,0.29-0.61l3.373-11.775l1.538-0.003c0,0,0,32.862,0,34.972c0,1.431,1.168,2.585,2.595,2.585
		c1.426,0,2.584-1.154,2.584-2.585c0-2.11,0-19.897,0-19.897h1.911c0,0,0,17.788,0,19.897c0,1.431,1.158,2.585,2.581,2.585
		c1.43,0,2.602-1.154,2.602-2.585c0-2.11,0-34.972,0-34.972l1.671,0.003l3.282,11.953c0.178,0.589,0.669,0.977,1.259,1.126
		c0.024,0.007,0.038,0.018,0.06,0.024c0.522,0.119,2.934,0.802,4.705,1.308c0,3.226,0,20.344,0,21.69
		c0,1.001,0.819,1.813,1.82,1.813s1.814-0.812,1.814-1.813c0-1.485,0-10.836,0-10.836h1.423c0,0,0,9.351,0,10.836
		c0,1.001,0.812,1.813,1.813,1.813s1.824-0.812,1.824-1.813c0-1.485,0-20.261,0-20.261h1.395c0,0,0,5.999,0,6.864
		c0,0.753,0.61,1.36,1.354,1.36c0.746,0,1.336-0.607,1.336-1.36c0-0.743,0-6.693,0-7.81C81.831,29.175,79.906,27.4,77.718,27.4z"/>
</g>
</svg>
