<svg xmlns="http://www.w3.org/2000/svg" xmlns:xlink="http://www.w3.org/1999/xlink" version="1.1" id="Layer_1" x="0px" y="0px" width="73.452px" height="100px" viewBox="-3.144 -2.28 73.452 100" enable-background="new -3.144 -2.28 73.452 100" xml:space="preserve">
<path d="M64.734,42.439c3.404-2.858,5.573-7.142,5.573-11.939c0-8.606-6.974-15.581-15.58-15.581c-0.316,0-0.623,0.028-0.936,0.048  C50.695,4.916,42.515-2.28,32.875-2.28c-12.294,0-22.259,11.685-22.259,26.103c0,0.038,0.004,0.077,0.004,0.114  C2.873,24.838-3.144,31.415-3.144,39.404c0,6.488,3.965,12.044,9.604,14.389c-0.958,2.021-1.509,4.272-1.509,6.656  c0,8.605,6.976,15.581,15.581,15.581c1.926,0,3.761-0.365,5.464-1.004V97.72h12.949V74.9c3.506-1.248,6.643-3.479,9.182-6.423  c2.008,0.941,4.24,1.482,6.602,1.482c8.606,0,15.58-6.976,15.58-15.581C70.308,49.582,68.139,45.298,64.734,42.439z"/>
</svg>