<svg xmlns="http://www.w3.org/2000/svg" xmlns:xlink="http://www.w3.org/1999/xlink" version="1.1" id="Layer_1" x="0px" y="0px" width="100px" height="100px" viewBox="0 0 100 100" enable-background="new 0 0 100 100" xml:space="preserve">
<path fill="#000000" d="M50.003,0C22.388,0,0,22.353,0,49.93c0,27.575,22.388,49.932,50.003,49.932  C77.615,99.862,100,77.505,100,49.93C100,22.353,77.615,0,50.003,0z M50.003,69.678c-30.764,0-46.147-19.748-46.147-19.748  s15.384-19.748,46.147-19.748c30.763,0,46.142,19.748,46.142,19.748S80.766,69.678,50.003,69.678z"/>
<path fill="#000000" d="M57.813,47.955c-3.896,0-7.059-3.14-7.059-7.012c0-3.414,2.461-6.253,5.716-6.878  c-2.003-0.806-4.177-1.274-6.47-1.274c-9.528,0-17.254,7.674-17.254,17.139c0,9.467,7.726,17.141,17.254,17.141  c9.531,0,17.254-7.674,17.254-17.141c0-3.154-0.922-6.075-2.42-8.615C64.631,45.017,61.58,47.955,57.813,47.955z"/>
</svg>