<svg xmlns="http://www.w3.org/2000/svg" xmlns:xlink="http://www.w3.org/1999/xlink" xmlns:a="http://ns.adobe.com/AdobeSVGViewerExtensions/3.0/" version="1.1" x="0px" y="0px" width="100px" height="100px" viewBox="-1 -18.982 100 100" overflow="visible" enable-background="new -1 -18.982 100 100" xml:space="preserve">
<defs>
</defs>
<path fill="#000000" d="M49,62.035c-26.167,0-46.674-27.814-47.535-28.999L0,31.018l1.465-2.019C2.326,27.814,22.833,0,49,0  c26.166,0,46.674,27.814,47.534,28.999L98,31.018l-1.466,2.019C95.674,34.221,75.166,62.035,49,62.035z M8.616,31.014  C13.669,37.151,30.117,55.166,49,55.166c18.928,0,35.339-18.006,40.386-24.145C84.331,24.883,67.885,6.869,49,6.869  C30.072,6.869,13.661,24.874,8.616,31.014z"/>
<circle fill="#000000" cx="49" cy="31.018" r="18.997"/>
</svg>