<svg xmlns="http://www.w3.org/2000/svg" xmlns:xlink="http://www.w3.org/1999/xlink" version="1.1" id="Layer_1" x="0px" y="0px" width="87.5px" height="100px" viewBox="0 0 87.5 100" style="enable-background:new 0 0 87.5 100;" xml:space="preserve">
<path style="fill:#010101;" d="M74.634,19.019l-8.813,8.851C71.729,33.777,75,41.639,75,50c0,17.236-14.014,31.25-31.25,31.25V75  l-12.5,12.5l12.5,12.5v-6.25C67.871,93.75,87.5,74.121,87.5,50C87.5,38.293,82.935,27.295,74.634,19.019z"/>
<path style="fill:#010101;" d="M56.25,12.5L43.75,0v6.25C19.629,6.25,0,25.879,0,50c0,11.707,4.565,22.705,12.866,30.981  l8.813-8.851C15.771,66.223,12.5,58.361,12.5,50c0-17.236,14.014-31.25,31.25-31.25V25L56.25,12.5z"/>
</svg>